<svg xmlns="http://www.w3.org/2000/svg" xmlns:xlink="http://www.w3.org/1999/xlink" id="Livello_1" x="0" y="0" version="1.1" viewBox="0 0 545.5 134.4" xml:space="preserve" style="enable-background:new 0 0 545.5 134.4"><style type="text/css">.st0{fill:#fff}</style><g id="Livello_2_00000013880955385528105010000002555105213840064136_"><g id="Livello_1-2"><path d="M487,75.7l7.5-8.7c0,0,3.6-5.8,1.2-6c-7.5-1.7-11.1,13.6-11.1,13.6s-11,13.9-13.5,16.3 c-12.6,0.5-14.5,13.8-14.9,17.1c-2.4,3.9-10.6,10.8-13.3,9.9s-1.2-5.8-1.2-5.8s7.5-11.8,10.8-17.6c4.8-9.4,4.5-15.9-2-19 c-8.7-5.1-19.5,10.3-22.7,15.2c2.9-6.2,2.4-13.9-1.5-15.6c-5.3-3.1-9.2,0-23.8,20c-14.5,20-21.6,23.6-23.6,22.9 c-2-0.7-0.5-7.7-0.5-7.7s17.5-30.6,20.4-35.4c-3.4,0.9-7,0.9-10.5,0l-2.9,5.3c1.4-2.6-1.2-5.4-3.6-5.9c-5.7-1.1-12.2,2.7-17.1,5.4 c-5.8,3.2-11.2,7.2-15.8,12c-6.7,6.9-10.1,23,1,27.8c9.2,4,19.1-10.8,21.6-14.9c-1.8,5.6-1.8,10.1,3,14.2 c6.7,5.7,15.2-4.1,19.4-8.7c5.1-5.7,9.8-11.8,14-18.2l2.2-3.2c0,0,9.7-12.8,12.3-12.1c3.6,2.6-5.8,16.9-5.8,16.9l-16.6,26.3 c0,0,8.7,0,11.3-0.4c19.6-36.2,30.9-41.5,34.4-42.7c7.2,0,2.2,6.5,2.2,6.5c-2.8,5.7-6.1,11.1-9.9,16.1c-6.6,8.9-4.1,17.3-0.5,19.1 c9.1,5.6,14.9-3.4,18.5-7.4c3.6,12.8,18.8,10.3,26.1,6.3c15.2-10.1,10.8-18,7.2-26.1C485,80.2,487,75.7,487,75.7z M374.5,96.9 c-4.4,6.4-9.2,12.5-14.4,18.3c-2.3,2.6-7.2,3.9-9.6,0.6c-1.1-1.6-1.5-3.6-1-5.4c0.9-2.9,2.1-5.6,3.8-8c0,0,18.5-29.7,29.6-25.1 C384.5,79.3,382.6,87.5,374.5,96.9z M471.5,116.4c-4,1.9-12.5,1.5-12.5-6c0.2-4.3,3.6-7.8,7.9-8c5.8-0.7,9.9-5.8,6.1-10.1l11.6-14 c-0.6,3.7-0.6,7.5,0,11.3C485.1,95.4,486.2,106,471.5,116.4L471.5,116.4z" class="st0"/><path d="M538.1,94.2c-2.2,3.2-20.2,27.3-32.5,22.9c-4.6-1.4-6.8-4.8,0.9-18.6c0,0,26.5-2.6,33-15.4 c1.5-4.8-1.9-9.7-9.2-8.5c-7.4,1.2-26.5,8.4-33,20.7s-1.5,24.5,10.1,25.1c7.9,0.5,21.6-8.2,34.4-27.5 C543.1,90.9,540.4,91.1,538.1,94.2z M533.5,76.6c1.5,1.7,1.4,11.1-25.1,19c0.2,0.1,16.5-22.3,25.1-18.8V76.6z" class="st0"/><path d="M181.8,93.4c-1.4,2.3-15.5,19-15.5,19s-6.8,7.7-10.4,5.2c-3.1-1.5,4.2-14.2,4.2-14.2L176.9,75 c-3.7,0.8-7.5,0.8-11.2,0c-1.4,2.7-2.7,5.5-2.7,5.5c1-2.2-0.1-4.8-2.3-5.7c-0.8-0.3-1.7-0.4-2.6-0.3c-8.9,0.8-17.3,4.5-23.9,10.4 c-6.6,5.5-12.9,12-13.4,21c-0.1,1.1-0.1,2.2,0,3.2c0.4,3.6,2.4,9.8,6.7,10.3c0,0-5.9,6-27.8-0.3c-10-3-29.5-7.7-29.5-7.7 c17.5-4.1,32.4-15.6,40.7-31.6c3.1-6.5,6.9-14.6,6.9-14.6s24-18,38.1-40.2c3-4.4,3.9-8.3,1.4-10.3s-12-2.7-39,31.8 c-3.4,5.9-16,25.9-17.3,28.2C99.7,76.1,76.3,98.7,54.3,97S29.2,80.7,31.3,68s17.4-55.4,60.1-57.5c7.4,0,25.9,8.4,14.4,33.5 c-3.4,6.4-25.1,42.5-46.2,31.3c-2.7-2.1-7.2-4.7-4.2-13.5c-1.8,5.4,5.4,7.7,8.7,4.5c2.4-2.2,3.2-5.5,2-8.5 c-1.8-3.6-8.1-2.5-10.6-0.3c-5.1,4.5-5.6,12.4-1.1,17.5c0.5,0.6,1.1,1.1,1.7,1.6c4.9,4.3,16.6,6.1,27.5-2.8 c8.7-6.2,26.3-20.3,27.9-45.5c1-10.8-9.6-25.9-37.7-18c-16.8,4.4-50.2,27.4-49.8,59.6c0.4,18,15.9,42.4,55,23.5 c6.6-3.5,12.8-7.7,18.5-12.6c-4.4,6.1-15.3,24.7-30.7,29.8c-3.1-0.4-35.9-12-58.1-6c-8.2,3.4-5.5,9.2-3.6,9.7 c1.9,0.5,8.8,8.4,50.3,1.8c3,1.3,31.8,10.5,45.3,10.4c13.5-0.1,20.7,0.8,30.8-6.1c1.8,0,6.8,0,17.4-15.6 c-0.9,3.4-2.2,14.4,6.5,15.5c4.3,0.5,9.2,0.8,28.7-27C185,92.4,183.3,91.1,181.8,93.4z M150.6,17.8c2.7-1.5,4.7-1.6,5.6-0.8 c0.9,0.8-0.3,4-1.7,6c-9.5,14.4-21.3,27.2-34.8,38C119.7,61,134.4,27.8,150.6,17.8z M5.9,110.2c0.2-2.1,2.1-2.7,7-3.4 c9.9-1.7,37.8,7.6,37.8,7.6C9.9,118.5,5.7,112.2,5.9,110.2z M135,117c0.9-1.1,0-2.2-1.9-0.8c-0.9,0.8-2,1.4-3.1,1.9 c0,0-5.7-3.3,1.4-16.6c7.2-13.2,23.4-28.7,29-24.1c1.2,2.1,1.2,4.6,0,6.7C159.6,86.5,146.6,108.9,135,117z" class="st0"/><path d="M341.7,32.6c2.7-2.6,23.6-25.1,48.2-14.7c3.8,2.9,13.7,7.2,7.5,31.1c0.3,1.2,2,2.9,3.1-1.7S405.6,21,388,14.5 c-7.2-2.6-26.5-5.6-48.4,15.6c0.5-0.5-8.6-8.9-9.3-9.4c-5.9-4.6-12.9-7.7-20.3-9.1c-22.3-4-48,5-65.5,18.9 c-10.7,8.3-18.7,19.7-22.9,32.6c-1.9,6.5-6.9,30.6,19.3,39.1c6.3,1.7,37.4-2.2,54.5-40.5c1.2-4.3,3.6-24.5-14.4-24 c-10.3,0.5-10.8,9.9-9.9,11.3c0.9,1.4,4.1,6.7,10.4,0.9c2.9-2.2,4.5-8.9-4.6-8.4c3.6-0.5,16.9-4.3,16.1,13.2 c-0.4,8.4-15.9,40.7-46.7,45.1c-6.5,0.2-12.8-2.7-16.8-7.9c-1.2-2-1.9-4.3-2.2-6.7c-0.9-6.3-0.3-12.7,1.8-18.7 c3.9-10.2,9.9-19.4,17.6-27.2c7.8-8.6,17.4-15.3,28.1-19.9c19.6-8.4,42.5-8.7,57.8,8c1.4,1.6,2.8,3.3,4,5 c-6.5,6.2-12.4,12.9-17.6,20.1c-5.5,8.5-22.6,34.2-24.3,36.9c-1.7,2.7-16.2,24.5-37.8,27.5c-14.8-3.6-31.6-7.9-46.4-2.9 c-1.7,0.6-3.8,1.4-3.9,3.4c0,2.7,9.9,8.4,47.5,2c5.5,1,42.2,11.8,73.3-14.9C334.9,98.8,359.7,72.1,341.7,32.6z M209.6,117.4 c0,0,4.1-3.4,37.9,1.5C242.2,119.1,212.6,121.4,209.6,117.4z M329.4,92.3c-9.2,12.3-23.2,33.8-66.8,26.1 c20.7-4.1,38.6-17.1,48.9-35.6c7.2-13.1,19.2-39.1,27.4-47c1.7,4,11,26-9.4,56.3V92.3z" class="st0"/></g></g></svg>